<svg width="32" height="46" viewBox="0 0 17 26" version="1.1" xmlns="http://www.w3.org/2000/svg" xmlns:xlink="http://www.w3.org/1999/xlink">
    <g id="Symbols" stroke="none" stroke-width="1" fill="none" fill-rule="evenodd">
        <g id="desktopFooter" transform="translate(-712.000000, -19.000000)" fill="#FEFEFE">
            <g id="Group" transform="translate(712.000000, 19.000000)" fill="#FEFEFE">
                <path d="M15.8080316,0.877618363 L15.8088582,0.612455919 L16.0163366,0.613238109 C16.1502469,0.613238109 16.2163755,0.638268192 16.2163755,0.744646046 C16.2163755,0.85024171 16.1469405,0.878400553 16.0163366,0.877618363 L15.8080316,0.877618363 Z M16.4817163,1.49945949 L16.2081094,1.05986866 C16.3759106,1.01763039 16.4668374,0.908905967 16.4668374,0.729784434 C16.467664,0.497473974 16.3106087,0.409086493 16.0758523,0.409086493 L15.5666624,0.408304303 L15.5641826,1.49789511 L15.807205,1.4986773 L15.8080316,1.07942341 L15.9411153,1.07942341 L16.2014965,1.4986773 L16.4817163,1.49945949 Z M15.9799659,1.71299739 C15.5426908,1.7122152 15.1988223,1.37118032 15.1996489,0.962094894 C15.2004755,0.551445091 15.5451706,0.213538968 15.9824457,0.214321158 C16.4197208,0.215103348 16.7635893,0.556138232 16.7627627,0.965223654 C16.7619361,1.37352689 16.417241,1.71377958 15.9799659,1.71299739 Z M16.9999989,0.965223654 C17.0008255,0.435680957 16.5486715,0.00078326086 15.9857521,1.07075996e-06 C15.4228328,-0.00078111934 14.9632393,0.427076865 14.9624127,0.962094894 C14.9615861,1.49711292 15.4195263,1.92653529 15.9791393,1.92731748 C16.5420586,1.92888186 16.9991723,1.49554854 16.9999989,0.965223654 Z M11.2897979,1.01137287 C8.99265719,1.01137287 7.13031169,2.77364717 7.13031169,4.94735345 C7.13031169,7.12105974 8.99265719,8.88333404 11.2897979,8.88333404 C13.5869387,8.88333404 15.4484576,7.12105974 15.4484576,4.94735345 C15.4484576,2.77364717 13.5869387,1.01137287 11.2897979,1.01137287 Z M5.87882874,6.56883353 L5.86147,26 L0,26 L0,5.90084319 C0,3.16161346 2.04833206,0.941757951 4.57444295,0.941757951 L8.47933426,0.941757951 C6.93440584,1.82719714 5.87882874,3.29693234 5.87882874,6.56883353 Z" id="Fill-1" fill="#FEFEFE"></path>
            </g>
        </g>
    </g>
</svg>